# xmcd
#
# Track frame offsets:
#	150
#	21082
#	41755
#	60450
#	73067
#	93475
#	110457
#	128672
#	155232
#	171292
#	187205
#
# Disc length: 2624 seconds
#
# Revision: 0
# Processed by: cddbd v1.5.2PL0 Copyright (c) Steve Scherf et al.
# Submitted via: audiograbber 1.83.01
#
DISCID=9d0a3e0b
DTITLE=George Thorogood and The Destroyers - Maverick
DYEAR=1985
DGENRE=Blues
TTITLE0=Gear Jammer
TTITLE1=I Drink Alone
TTITLE2=Willie And The Hand Jive
TTITLE3=What A Price
TTITLE4=Long Gone
TTITLE5=Dixie Fried
TTITLE6=Crawling King Snake
TTITLE7=Memphis - Marie
TTITLE8=Woman With The Blues
TTITLE9=Go Go Go
TTITLE10=The Ballad Of Maverick
EXTD=
EXTT0=
EXTT1=
EXTT2=
EXTT3=
EXTT4=
EXTT5=
EXTT6=
EXTT7=
EXTT8=
EXTT9=
EXTT10=
PLAYORDER=
